IKResults
version=1
nRows=8
nColumns=40
inDegrees=yes

Units are S.I. units (second, meters, Newtons, ...)
Angles are in degrees.

endheader
time	pelvis_tilt	pelvis_list	pelvis_rotation	pelvis_tx	pelvis_ty	pelvis_tz	hip_flexion_r	hip_adduction_r	hip_rotation_r	knee_angle_r	knee_angle_r_beta	ankle_angle_r	subtalar_angle_r	mtp_angle_r	hip_flexion_l	hip_adduction_l	hip_rotation_l	knee_angle_l	knee_angle_l_beta	ankle_angle_l	subtalar_angle_l	mtp_angle_l	lumbar_extension	lumbar_bending	lumbar_rotation	arm_flex_r	arm_add_r	arm_rot_r	elbow_flex_r	pro_sup_r	wrist_flex_r	wrist_dev_r	arm_flex_l	arm_add_l	arm_rot_l	elbow_flex_l	pro_sup_l	wrist_flex_l	wrist_dev_l
      0.79000000	     18.08767543	     -3.16750427	      0.51281676	     -0.89651109	      0.95503765	     -1.49344286	     -0.58837173	      0.57534512	    -14.22287226	    -32.77185035	     -0.57197669	      5.09723224	    -12.16253623	      8.61435310	    -22.58070003	      0.47387540	     13.57583708	    -12.54307688	     -0.21891799	     13.66434910	      4.08255477	     -4.98970685	    -25.31161856	      1.68275145	     -0.76260909	     -1.16270765	    -10.56002715	     -0.26218979	     25.77129644	     89.95437384	      0.00000000	      0.00000000	     11.61776911	     13.86459212	     -2.46391618	     29.38368367	     89.95437384	      0.00000000	      0.00000000
      0.80000000	     17.68584373	     -3.12091325	      0.19624358	     -0.89166783	      0.95397223	     -1.49352746	      0.48550763	      0.51264031	    -14.43962754	    -31.43052593	     -0.54856616	      4.77808798	    -11.20728854	      8.44178687	    -22.30928921	      0.28371467	     13.59332786	    -12.89513736	     -0.22506260	     13.85613383	      4.11814630	     -4.91123226	    -25.05749828	      1.54699003	     -0.47620624	     -1.18060099	    -10.61351567	     -0.19678085	     25.81977606	     89.95437384	      0.00000000	      0.00000000	     12.17003088	     13.79285403	     -2.40089983	     29.93715123	     89.95437384	      0.00000000	      0.00000000
      0.81000000	     17.70900177	     -3.71564686	      0.31786732	     -0.88631083	      0.95373804	     -1.49361108	      0.62702917	      1.36315571	    -14.45319294	    -29.37543657	     -0.51269809	      4.01654868	     -8.82003508	      7.99386834	    -22.50342744	      0.94439346	     13.43944722	    -13.36236321	     -0.23321723	     14.51289703	      4.59471035	     -4.85684974	    -25.21912070	      2.20490575	     -0.32402776	     -1.08456333	    -10.62776111	     -0.37364932	     25.70321389	     89.95437384	      0.00000000	      0.00000000	     12.73864973	     13.61761954	     -2.12026691	     30.28148189	     89.95437384	      0.00000000	      0.00000000
      0.82000000	     17.81507287	     -3.95804215	      0.64769516	     -0.88033971	      0.95341430	     -1.49416233	      0.65514937	      1.57576066	    -15.85408697	    -27.40187742	     -0.47825298	      3.55213661	     -6.70260730	      7.23787416	    -22.87271610	      1.29371327	     12.98118604	    -13.63346990	     -0.23794894	     14.70165467	      4.76959897	     -4.84858318	    -25.36916380	      2.58477186	     -0.45754097	     -1.20987553	    -10.66096671	     -0.35100956	     25.81587653	     89.95437384	      0.00000000	      0.00000000	     13.13400086	     13.48187218	     -1.87961048	     30.85136787	     89.95437384	      0.00000000	      0.00000000
      0.83000000	     17.67605750	     -3.97536668	      0.60903259	     -0.87487612	      0.95272769	     -1.49473999	      1.17804000	      1.42945172	    -16.96713197	    -25.76020750	     -0.44960044	      1.83633519	     -5.03216704	     -1.95361087	    -23.11741911	      1.10855202	     12.07846101	    -13.57780527	     -0.23697741	     14.94988595	      6.06664383	     -5.13231727	    -25.32693492	      2.66070108	     -0.38924197	     -1.20101531	    -10.74229220	     -0.23052837	     25.77663285	     89.95437384	      0.00000000	      0.00000000	     13.53073613	     13.31493192	     -1.69442081	     31.35309857	     89.95437384	      0.00000000	      0.00000000
      0.84000000	     17.27157272	     -3.98255908	      0.38362932	     -0.86899452	      0.95159095	     -1.49465827	      2.02941490	      1.45137378	    -17.58292683	    -24.36896549	     -0.42531868	      1.37273518	     -4.21583627	     -1.93705041	    -22.98801471	      1.02940200	     12.11294543	    -13.79415831	     -0.24075348	     15.18597551	      6.07747513	     -5.08818423	    -24.92870901	      2.61871611	     -0.10309539	     -1.26411671	    -10.76854832	     -0.13147005	     25.61279435	     89.95437384	      0.00000000	      0.00000000	     13.84087603	     13.14221978	     -1.61075897	     31.82905156	     89.95437384	      0.00000000	      0.00000000
      0.85000000	     17.48343767	     -4.61524438	      0.90307405	     -0.86321381	      0.95146594	     -1.49514574	      1.75527017	      2.21665573	    -18.80331767	    -22.22060228	     -0.38782267	      0.29805693	     -1.52570195	     -2.31134197	    -23.33508269	      1.92347108	     11.74552650	    -14.35523259	     -0.25054607	     15.55783386	      6.28963607	     -5.09544833	    -25.22277697	      3.47509872	     -0.32712672	     -1.18976553	    -10.85346350	      0.12947236	     25.55212958	     89.95437384	      0.00000000	      0.00000000	     14.11734399	     12.93530323	     -1.08640489	     32.44064669	     89.95437384	      0.00000000	      0.00000000
      0.86000000	     17.44957866	     -4.81442299	      1.08879664	     -0.85739686	      0.95088907	     -1.49550624	      1.99031068	      2.42114364	    -20.01768025	    -20.64462564	     -0.36031669	     -0.41112397	      0.47259833	     -2.76048161	    -23.52944003	      2.21621960	     11.44973825	    -14.68200313	     -0.25624930	     15.70022201	      6.27646034	     -5.12879076	    -25.23317295	      3.78490403	     -0.37381556	     -1.16549867	    -10.91932821	      0.34822740	     25.44507533	     89.95437384	      0.00000000	      0.00000000	     14.33349868	     12.77775139	     -0.88311421	     33.08363159	     89.95437384	      0.00000000	      0.00000000
